<svg width="71" height="13" viewBox="0 0 71 13" fill="none" xmlns="http://www.w3.org/2000/svg">
    <path
        d="M7 0.832V2.64H2.344V5.504H5.912V7.28H2.344V12H0.104V0.832H7ZM10.8284 0.16V12H8.58838V0.16H10.8284ZM21.2815 7.376C21.2815 7.696 21.2602 7.984 21.2175 8.24H14.7375C14.7908 8.88 15.0148 9.38133 15.4095 9.744C15.8042 10.1067 16.2895 10.288 16.8655 10.288C17.6975 10.288 18.2895 9.93067 18.6415 9.216H21.0575C20.8015 10.0693 20.3108 10.7733 19.5855 11.328C18.8602 11.872 17.9695 12.144 16.9135 12.144C16.0602 12.144 15.2922 11.9573 14.6095 11.584C13.9375 11.2 13.4095 10.6613 13.0255 9.968C12.6522 9.27467 12.4655 8.47467 12.4655 7.568C12.4655 6.65067 12.6522 5.84533 13.0255 5.152C13.3988 4.45867 13.9215 3.92533 14.5935 3.552C15.2655 3.17867 16.0388 2.992 16.9135 2.992C17.7562 2.992 18.5082 3.17333 19.1695 3.536C19.8415 3.89867 20.3588 4.416 20.7215 5.088C21.0948 5.74933 21.2815 6.512 21.2815 7.376ZM18.9615 6.736C18.9508 6.16 18.7428 5.70133 18.3375 5.36C17.9322 5.008 17.4362 4.832 16.8495 4.832C16.2948 4.832 15.8255 5.00267 15.4415 5.344C15.0682 5.67467 14.8388 6.13867 14.7535 6.736H18.9615ZM27.8125 12L25.9885 9.248L24.3725 12H21.9725L24.8685 7.552L21.9405 3.136H24.4685L26.2765 5.872L27.9085 3.136H30.3085L27.3965 7.552L30.3405 12H27.8125ZM33.7971 4.432C34.0851 4.00533 34.4798 3.65867 34.9811 3.392C35.4931 3.12533 36.0745 2.992 36.7251 2.992C37.4825 2.992 38.1651 3.17867 38.7731 3.552C39.3918 3.92533 39.8771 4.45867 40.2291 5.152C40.5918 5.83467 40.7731 6.62933 40.7731 7.536C40.7731 8.44267 40.5918 9.248 40.2291 9.952C39.8771 10.6453 39.3918 11.184 38.7731 11.568C38.1651 11.952 37.4825 12.144 36.7251 12.144C36.0638 12.144 35.4825 12.016 34.9811 11.76C34.4905 11.4933 34.0958 11.152 33.7971 10.736V12H31.5571V0.16H33.7971V4.432ZM38.4851 7.536C38.4851 7.00267 38.3731 6.544 38.1491 6.16C37.9358 5.76533 37.6478 5.46667 37.2851 5.264C36.9331 5.06133 36.5491 4.96 36.1331 4.96C35.7278 4.96 35.3438 5.06667 34.9811 5.28C34.6291 5.48267 34.3411 5.78133 34.1171 6.176C33.9038 6.57067 33.7971 7.03467 33.7971 7.568C33.7971 8.10133 33.9038 8.56533 34.1171 8.96C34.3411 9.35467 34.6291 9.65867 34.9811 9.872C35.3438 10.0747 35.7278 10.176 36.1331 10.176C36.5491 10.176 36.9331 10.0693 37.2851 9.856C37.6478 9.64267 37.9358 9.33867 38.1491 8.944C38.3731 8.54933 38.4851 8.08 38.4851 7.536ZM46.3369 12.144C45.4835 12.144 44.7155 11.9573 44.0329 11.584C43.3502 11.2 42.8115 10.6613 42.4169 9.968C42.0329 9.27467 41.8409 8.47467 41.8409 7.568C41.8409 6.66133 42.0382 5.86133 42.4329 5.168C42.8382 4.47467 43.3875 3.94133 44.0809 3.568C44.7742 3.184 45.5475 2.992 46.4009 2.992C47.2542 2.992 48.0275 3.184 48.7209 3.568C49.4142 3.94133 49.9582 4.47467 50.3529 5.168C50.7582 5.86133 50.9609 6.66133 50.9609 7.568C50.9609 8.47467 50.7529 9.27467 50.3369 9.968C49.9315 10.6613 49.3769 11.2 48.6729 11.584C47.9795 11.9573 47.2009 12.144 46.3369 12.144ZM46.3369 10.192C46.7422 10.192 47.1209 10.096 47.4729 9.904C47.8355 9.70133 48.1235 9.40267 48.3369 9.008C48.5502 8.61333 48.6569 8.13333 48.6569 7.568C48.6569 6.72533 48.4329 6.08 47.9849 5.632C47.5475 5.17333 47.0089 4.944 46.3689 4.944C45.7289 4.944 45.1902 5.17333 44.7529 5.632C44.3262 6.08 44.1129 6.72533 44.1129 7.568C44.1129 8.41067 44.3209 9.06133 44.7369 9.52C45.1635 9.968 45.6969 10.192 46.3369 10.192ZM56.54 12.144C55.6867 12.144 54.9187 11.9573 54.236 11.584C53.5533 11.2 53.0147 10.6613 52.62 9.968C52.236 9.27467 52.044 8.47467 52.044 7.568C52.044 6.66133 52.2413 5.86133 52.636 5.168C53.0413 4.47467 53.5907 3.94133 54.284 3.568C54.9773 3.184 55.7507 2.992 56.604 2.992C57.4573 2.992 58.2307 3.184 58.924 3.568C59.6173 3.94133 60.1613 4.47467 60.556 5.168C60.9613 5.86133 61.164 6.66133 61.164 7.568C61.164 8.47467 60.956 9.27467 60.54 9.968C60.1347 10.6613 59.58 11.2 58.876 11.584C58.1827 11.9573 57.404 12.144 56.54 12.144ZM56.54 10.192C56.9453 10.192 57.324 10.096 57.676 9.904C58.0387 9.70133 58.3267 9.40267 58.54 9.008C58.7533 8.61333 58.86 8.13333 58.86 7.568C58.86 6.72533 58.636 6.08 58.188 5.632C57.7507 5.17333 57.212 4.944 56.572 4.944C55.932 4.944 55.3933 5.17333 54.956 5.632C54.5293 6.08 54.316 6.72533 54.316 7.568C54.316 8.41067 54.524 9.06133 54.94 9.52C55.3667 9.968 55.9 10.192 56.54 10.192ZM68.0551 12L65.0471 8.224V12H62.8071V0.16H65.0471V6.896L68.0231 3.136H70.9351L67.0311 7.584L70.9671 12H68.0551Z"
        fill="url(#paint0_linear_328_2)" />
    <defs>
        <linearGradient id="paint0_linear_328_2" x1="-1" y1="3" x2="72" y2="3"
            gradientUnits="userSpaceOnUse">
            <stop stop-color="#171717" />
            <stop offset="1" stop-color="#737373" />
        </linearGradient>
    </defs>
</svg>