<svg width="64" height="64" viewBox="0 0 64 64" fill="none" xmlns="http://www.w3.org/2000/svg">
<rect width="64" height="64" rx="6" fill="url(#paint0_linear_30_6)"/>
<path d="M42.28 48.4C42.0933 48.5333 41.84 48.6 41.52 48.6C41.04 48.6 40.6933 48.4 40.48 48C40.2667 47.5733 39.7867 46.6667 39.04 45.28C36.72 46.6933 34.1733 47.4 31.4 47.4C28.7067 47.4 26.28 46.8133 24.12 45.64C21.96 44.44 20.2533 42.7467 19 40.56C17.7733 38.3733 17.16 35.8533 17.16 33C17.16 30.12 17.7733 27.6 19 25.44C20.2533 23.2533 21.96 21.5733 24.12 20.4C26.28 19.2 28.7067 18.6 31.4 18.6C34.0933 18.6 36.52 19.2 38.68 20.4C40.84 21.5733 42.5333 23.2533 43.76 25.44C45.0133 27.6 45.64 30.12 45.64 33C45.64 35.2667 45.24 37.32 44.44 39.16C43.6667 40.9733 42.5867 42.5067 41.2 43.76C41.4133 44.2133 41.6533 44.6667 41.92 45.12L42.64 46.52C42.8 46.8933 42.88 47.2 42.88 47.44C42.88 47.84 42.68 48.16 42.28 48.4ZM23.24 41.52C24.1733 40.2133 25.36 39.1733 26.8 38.4C28.2667 37.6 29.8533 37.2 31.56 37.2C33.32 37.2 34.8667 37.5733 36.2 38.32C37.56 39.0667 38.7067 40.0933 39.64 41.4C40.6 40.3867 41.3333 39.1733 41.84 37.76C42.3733 36.3467 42.64 34.76 42.64 33C42.64 30.4933 42.1333 28.3467 41.12 26.56C40.1333 24.7733 38.7733 23.4267 37.04 22.52C35.3333 21.6133 33.4267 21.16 31.32 21.16C29.1867 21.16 27.2667 21.6267 25.56 22.56C23.88 23.4933 22.56 24.8533 21.6 26.64C20.64 28.4267 20.16 30.5467 20.16 33C20.16 34.7867 20.4267 36.4 20.96 37.84C21.52 39.28 22.28 40.5067 23.24 41.52ZM31.4 44.84C33.7467 44.84 35.8267 44.2533 37.64 43.08C36.1733 40.8667 34.1733 39.76 31.64 39.76C30.2267 39.76 28.96 40.0667 27.84 40.68C26.7467 41.2933 25.88 42.12 25.24 43.16C27.0267 44.28 29.08 44.84 31.4 44.84Z" fill="white"/>
<defs>
<linearGradient id="paint0_linear_30_6" x1="0" y1="0" x2="64" y2="64" gradientUnits="userSpaceOnUse">
<stop stop-color="#0D0D0D"/>
<stop offset="0.99463" stop-color="#262626"/>
</linearGradient>
</defs>
</svg>
